<svg width="92" height="36" viewBox="0 0 92 36" fill="none" xmlns="http://www.w3.org/2000/svg">
<g clip-path="url(#clip0_920_5303)">
<path d="M6.6543 14.9063L8.21909 12.3198L7.49527 14.6674C7.21223 14.7334 6.9292 14.813 6.6543 14.9063Z" fill="#0074E4"/>
<path d="M10.4548 5.05992L9.60634 7.81721C9.53601 8.04631 9.43776 8.26578 9.31383 8.47063L7.31907 11.769L5.06836 15.4969V8.90148L7.81877 0C8.83559 0.319951 9.68442 1.03265 10.1787 1.98146C10.673 2.93027 10.7723 4.03755 10.4548 5.05992Z" fill="#0074E4"/>
<path d="M16.9992 5.54998L11.6412 14.4297C11.5593 14.4181 11.4746 14.4093 11.3934 14.4004C10.9917 14.3574 10.588 14.3347 10.1841 14.3323C9.27769 14.332 8.3747 14.4433 7.49527 14.6638C7.21223 14.7319 6.9292 14.8108 6.6543 14.9048L8.21909 12.3183L15.6619 0C16.1122 0.276121 16.5041 0.638716 16.815 1.06708C17.126 1.49544 17.3499 1.98118 17.4741 2.49655C17.5983 3.01193 17.6203 3.54684 17.5388 4.07075C17.4573 4.59467 17.2739 5.09731 16.9992 5.54998Z" fill="#0074E4"/>
<path d="M16.9992 5.54998L11.6412 14.4297C11.5593 14.4181 11.4746 14.4093 11.3934 14.4004C10.9917 14.3574 10.588 14.3347 10.1841 14.3323C9.27769 14.332 8.3747 14.4433 7.49527 14.6638C7.21223 14.7319 6.9292 14.8108 6.6543 14.9048L8.21909 12.3183L15.6619 0C16.1122 0.276121 16.5041 0.638716 16.815 1.06708C17.126 1.49544 17.3499 1.98118 17.4741 2.49655C17.5983 3.01193 17.6203 3.54684 17.5388 4.07075C17.4573 4.59467 17.2739 5.09731 16.9992 5.54998Z" fill="#0074E4"/>
<path d="M4.01728 25.5966V25.6374C4.01684 26.4519 4.17612 27.2586 4.48604 28.0112C4.79595 28.7639 5.25041 29.4477 5.82342 30.0237C6.39644 30.5996 7.07678 31.0564 7.82553 31.3678C8.57428 31.6793 9.37677 31.8393 10.1871 31.8387C12.8698 31.8387 15.1476 30.0929 15.9974 27.7038C16.1386 27.3168 16.3953 26.9831 16.7323 26.7482C17.0693 26.5133 17.4703 26.3888 17.8804 26.3915C19.282 26.3915 20.2455 27.7944 19.7668 29.1209C19.0514 31.1054 17.7439 32.8194 16.023 34.0288C14.3021 35.2381 12.2516 35.8838 10.1519 35.8777C4.50818 35.8566 0 31.1139 0 25.4407V3.4082C1.06545 3.4082 2.08726 3.83366 2.84065 4.59098C3.59403 5.34831 4.01728 6.37546 4.01728 7.44647V17.4751C4.55595 17.0611 5.13515 16.7032 5.74594 16.4072C6.19198 16.1907 6.65374 16.0087 7.12724 15.8626C8.39013 15.4645 9.71785 15.3164 11.0369 15.4264C11.1154 15.4352 11.1973 15.4413 11.2793 15.4502C14.6106 15.7993 17.4687 17.7977 19.0511 20.5979L19.238 20.9443C19.7661 21.9661 20.1167 23.071 20.2746 24.2114C20.2836 24.274 20.2792 24.3378 20.2617 24.3986C20.2441 24.4593 20.2139 24.5156 20.173 24.5637C20.1321 24.6117 20.0815 24.6505 20.0245 24.6773C19.9676 24.7041 19.9056 24.7184 19.8426 24.7192H18.5291C17.3197 24.7192 16.2513 23.997 15.7197 22.908C15.2135 21.8661 14.426 20.9881 13.4473 20.3743C12.4686 19.7606 11.3379 19.4357 10.1844 19.4367C6.7765 19.4326 4.01728 22.209 4.01728 25.5966Z" fill="#0074E4"/>
<path d="M32.9203 15.4756C31.5816 15.4727 30.2555 15.7356 29.0181 16.2492C27.7807 16.7628 26.6563 17.5169 25.7096 18.4684C24.7629 19.4198 24.0123 20.5498 23.5011 21.7935C22.9899 23.0372 22.728 24.3702 22.7305 25.7159C22.7305 31.3476 27.2793 35.9589 32.9203 35.9589C34.4241 35.9589 36.4941 35.9998 39.1713 34.2063C40.1057 33.5937 40.6339 32.5305 40.1464 31.5123C39.6616 30.5322 38.4035 29.9625 37.4691 30.573C35.519 31.8383 33.856 31.922 32.9203 31.922C30.2017 31.922 27.9273 30.1673 27.0748 27.7191H41.0808C42.2163 27.7191 43.1121 26.8213 43.1121 25.718C43.1128 19.0647 37.8341 15.4756 32.9203 15.4756ZM27.0748 23.676C27.5021 22.4602 28.2934 21.4073 29.3402 20.662C30.3869 19.9167 31.6376 19.5156 32.9203 19.5139C35.3579 19.5139 37.9539 20.82 38.8064 23.676H27.0748Z" fill="#F5F9FE"/>
<path d="M56.5148 25.2697C53.1448 22.6547 48.7599 24.5714 48.7599 21.6364C48.7599 20.2479 50.0619 19.3903 51.5597 19.3903C52.7013 19.3903 54.4036 19.7599 54.973 20.902C55.4605 21.6358 55.8661 22.2871 56.8384 22.2871C57.936 22.2871 58.8271 21.3512 58.9117 20.3296C58.9117 17.8405 55.948 16.4935 55.5424 16.2913C54.3334 15.6775 52.9988 15.3548 51.6443 15.3486C48.0706 15.3486 44.7832 17.6764 44.7832 21.5942C44.7832 26.0865 49.049 27.4294 51.5218 27.72C53.4691 27.9242 54.8911 28.4953 54.8911 29.8831C54.8504 30.2064 54.646 32.0054 52.0472 32.0054C50.3016 31.923 49.3266 31.3928 48.3908 30.086C48.2098 29.8486 47.9778 29.6555 47.7121 29.5209C47.4465 29.3863 47.154 29.3137 46.8565 29.3087C45.7176 29.3087 44.7866 30.2888 44.7866 31.307C44.7866 31.5112 44.7866 31.7154 44.8651 31.8795C45.9627 34.7348 49.2914 36.0001 52.1352 36.0001C58.0559 36.0001 58.909 31.0634 58.909 29.8804C58.909 28.2047 57.9773 26.4527 56.5148 25.2697Z" fill="#F5F9FE"/>
<path d="M71.6209 15.5187H68.7364V9.99593C68.7364 8.89533 67.8453 7.99756 66.7051 7.99756C66.1781 7.99864 65.673 8.2095 65.3003 8.58402C64.9276 8.95853 64.7177 9.4662 64.7164 9.99593V15.5187H61.7961C61.2684 15.5187 60.7623 15.7292 60.3889 16.104C60.0155 16.4788 59.8054 16.9873 59.8047 17.5177C59.8047 18.6183 60.6985 19.5597 61.7961 19.5597H64.7185V33.9601C64.7185 35.0607 65.6122 36.002 66.7071 36.002C67.2459 36.002 67.7625 35.7869 68.1435 35.404C68.5244 35.021 68.7384 34.5016 68.7384 33.9601V19.5556H71.6229C72.1611 19.5538 72.6768 19.3381 73.0573 18.9555C73.4379 18.573 73.6525 18.0547 73.6543 17.5137C73.6502 16.4117 72.7537 15.5187 71.6209 15.5187Z" fill="#F5F9FE"/>
<path d="M90.0116 15.5186C88.8727 15.5186 87.9803 16.4137 87.9803 17.5177V27.7172C87.9806 28.2746 87.8715 28.8267 87.6594 29.3418C87.4473 29.8569 87.1363 30.3249 86.7442 30.7191C86.352 31.1133 85.8864 31.4259 85.374 31.6391C84.8616 31.8523 84.3124 31.9619 83.7579 31.9617C81.4428 31.9617 79.574 30.0422 79.574 27.7172V17.5157C79.574 16.4116 78.6836 15.5166 77.5427 15.5166C77.0155 15.5171 76.51 15.728 76.1373 16.1027C75.7646 16.4775 75.555 16.9857 75.5547 17.5157V27.7968C75.5953 32.3285 79.251 35.9999 83.7558 35.9999C85.9283 36.0029 88.0139 35.1421 89.5575 33.6054C91.1011 32.0686 91.9775 29.9806 91.9955 27.7968V17.5191C91.9956 16.9896 91.7867 16.4817 91.4148 16.1067C91.043 15.7317 90.5383 15.5203 90.0116 15.5186Z" fill="#F5F9FE"/>
</g>
<defs>
<clipPath id="clip0_920_5303">
<rect width="92" height="36" fill="white"/>
</clipPath>
</defs>
</svg>
